<svg width="30" height="30" viewBox="0 0 30 30" fill="none" xmlns="http://www.w3.org/2000/svg">
<path d="M25 5.00002C24.1875 4.18741 23.2228 3.54281 22.1612 3.10303C21.0995 2.66324 19.9616 2.43689 18.8125 2.43689C17.6634 2.43689 16.5255 2.66324 15.4638 3.10303C14.4022 3.54281 13.4375 4.18741 12.625 5.00002L2.85 14.775C2.61718 15.0092 2.48651 15.326 2.48651 15.6563C2.48651 15.9865 2.61718 16.3033 2.85 16.5375L7.275 20.9625L2.85 25.375L4.625 27.15L9.0375 22.725L13.4625 27.15C13.6967 27.3828 14.0135 27.5135 14.3437 27.5135C14.674 27.5135 14.9908 27.3828 15.225 27.15L25 17.425C25.8201 16.6116 26.4711 15.6438 26.9153 14.5776C27.3595 13.5113 27.5882 12.3676 27.5882 11.2125C27.5882 10.0574 27.3595 8.91374 26.9153 7.84748C26.4711 6.78121 25.8201 5.81345 25 5.00002ZM21.625 8.37502C20.8506 7.63537 19.8209 7.22263 18.75 7.22263C17.6791 7.22263 16.6494 7.63537 15.875 8.37502L14.55 7.05002C15.6652 5.93863 17.1755 5.31458 18.75 5.31458C20.3245 5.31458 21.8347 5.93863 22.95 7.05002L21.625 8.37502Z" fill="#1E1E1E"/>
</svg>
