<svg width="28" height="21" viewBox="0 0 28 21" fill="none" xmlns="http://www.w3.org/2000/svg">
<g clip-path="url(#clip0_3_571)">
<path d="M26 16.875V4.125C26 2.94917 25.0547 2 23.8836 2H4.1164C2.94533 2 2 2.94917 2 4.125V16.875C2 18.0508 2.94533 19 4.1164 19H23.8836C25.0547 19 26 18.0508 26 16.875ZM24.1517 3.96917C24.6173 4.43667 24.3633 4.91833 24.1093 5.15917L18.381 10.4292L23.8836 16.1808C24.0529 16.3792 24.1658 16.6908 23.9683 16.9033C23.7848 17.13 23.3616 17.1158 23.1781 16.9742L17.0123 11.69L13.9929 14.4525L10.9877 11.69L4.82187 16.9742C4.63845 17.1158 4.21517 17.13 4.03175 16.9033C3.83422 16.6908 3.94709 16.3792 4.1164 16.1808L9.61905 10.4292L3.89065 5.15917C3.63668 4.91833 3.38272 4.43667 3.84832 3.96917C4.31393 3.50167 4.79365 3.72833 5.18871 4.06833L13.9929 11.2083L22.8113 4.06833C23.2063 3.72833 23.6861 3.50167 24.1517 3.96917Z" fill="#1E1E1E"/>
</g>
<defs>
<clipPath id="clip0_3_571">
<rect width="28" height="21" fill="white"/>
</clipPath>
</defs>
</svg>
