<svg width="30" height="30" viewBox="0 0 30 30" fill="none" xmlns="http://www.w3.org/2000/svg">
<path d="M15 0C6.71484 0 0 5.0332 0 11.25C0 15.6445 3.36914 19.4414 8.26758 21.293L4.99805 30L14.4023 22.4766C14.6016 22.4824 14.7949 22.5 15 22.5C23.2852 22.5 30 17.4668 30 11.25C30 5.0332 23.2852 0 15 0ZM7.5 13.752C6.12305 13.752 4.99805 12.6328 4.99805 11.25C4.99805 9.86719 6.11719 8.74805 7.5 8.74805C8.87695 8.74805 10.002 9.86719 10.002 11.25C10.002 12.6328 8.87695 13.752 7.5 13.752ZM15 13.752C13.623 13.752 12.498 12.6328 12.498 11.25C12.498 9.86719 13.6172 8.74805 15 8.74805C16.377 8.74805 17.502 9.86719 17.502 11.25C17.502 12.6328 16.377 13.752 15 13.752ZM22.5 13.752C21.123 13.752 19.998 12.6328 19.998 11.25C19.998 9.86719 21.1172 8.74805 22.5 8.74805C23.877 8.74805 25.002 9.86719 25.002 11.25C25.002 12.6328 23.877 13.752 22.5 13.752Z" fill="#FDF9F1"/>
</svg>
